<?xml version="1.0" encoding="utf-8"?>
<!-- Generator: Adobe Illustrator 22.0.0, SVG Export Plug-In . SVG Version: 6.00 Build 0)  -->
<svg version="1.1" id="Layer_1" xmlns="http://www.w3.org/2000/svg" xmlns:xlink="http://www.w3.org/1999/xlink" x="0px" y="0px"
	 viewBox="0 0 473.9 473.9" style="enable-background:new 0 0 473.9 473.9;" xml:space="preserve">
<g>
	<polygon points="216.6,280.1 285.3,234.9 216.6,189.6 	"/>
	<path d="M237,0C106.1,0,0,106.1,0,237s106.1,237,237,237s237-106.1,237-237S367.8,0,237,0z M361,191.2v96.4c0,19.9-16.1,36-35.9,36
		H156.4c-19.8,0-35.9-16.1-35.9-36v-96.4c0-19.9,16.1-36,35.9-36H325C344.9,155.3,361,171.4,361,191.2L361,191.2z"/>
</g>
</svg>
